# xmcd
#
# Track frame offsets:
#	150
#	20374
#	40548
#	54730
#	67799
#	81977
#	104493
#	126332
#	139577
#	167753
#	184298
#	204045
#
# Disc length: 2876 seconds
#
# Revision: 0
# Processed by: cddbd v1.5.2PL0 Copyright (c) Steve Scherf et al.
# Submitted via: dBpowerAMP V4.0
#
DISCID=9d0b3a0c
DTITLE=Twisters, The - After the Storm
DYEAR=2006
DGENRE=Blues
TTITLE0=I'm Your Man
TTITLE1=When Your Memory Goes Away
TTITLE2=Thick or Thin
TTITLE3=She's Krazy
TTITLE4=Second Wind
TTITLE5=Honest to Goodness
TTITLE6=Harp Player
TTITLE7=Goin', Goin', Gone
TTITLE8=Button Up
TTITLE9=Where's the Woman
TTITLE10=Nobody
TTITLE11=Bye Bye Bird
EXTD=
EXTT0=
EXTT1=
EXTT2=
EXTT3=
EXTT4=
EXTT5=
EXTT6=
EXTT7=
EXTT8=
EXTT9=
EXTT10=
EXTT11=
PLAYORDER=
